0
SECTION
2
ENTITIES
0
LINE
8
0
10
0.00000
20
19.50000
11
0.00000
21
1.25000
0
LINE
8
0
10
0.00000
20
1.25000
11
1.25000
21
0.00000
0
LINE
8
0
10
0.02485
20
116.70265
11
0.02485
21
56.65265
0
LINE
8
0
10
0.02485
20
56.65265
11
1.42485
21
56.65265
0
LINE
8
0
10
0.02485
20
51.95265
11
0.02485
21
22.15265
0
LINE
8
0
10
0.02485
20
22.15265
11
16.87610
21
22.15265
0
LINE
8
0
10
1.25000
20
0.00000
11
17.00000
21
0.00000
0
LINE
8
0
10
1.42485
20
56.65265
11
1.42485
21
51.95265
0
LINE
8
0
10
1.42485
20
51.95265
11
0.02485
21
51.95265
0
LINE
8
0
10
1.50000
20
21.00000
11
0.00000
21
19.50000
0
LINE
8
0
10
16.75000
20
21.00000
11
1.50000
21
21.00000
0
LINE
8
0
10
16.87610
20
22.15265
11
19.57485
21
19.45390
0
LINE
8
0
10
17.00000
20
0.00000
11
18.25000
21
1.25000
0
LINE
8
0
10
18.25000
20
19.50000
11
16.75000
21
21.00000
0
LINE
8
0
10
18.25000
20
16.66875
11
18.25000
21
19.50000
0
LINE
8
0
10
18.25000
20
4.12750
11
19.57485
21
4.12750
0
LINE
8
0
10
18.25000
20
1.25000
11
18.25000
21
4.12750
0
LINE
8
0
10
18.27000
20
14.60500
11
19.54000
21
14.60500
0
LINE
8
0
10
19.54000
20
14.60500
11
19.54000
21
11.43000
0
LINE
8
0
10
19.54000
20
11.43000
11
18.27000
21
11.43000
0
LINE
8
0
10
18.27000
20
11.43000
11
18.27000
21
14.60500
0
LINE
8
0
10
18.27000
20
9.36625
11
19.54000
21
9.36625
0
LINE
8
0
10
19.54000
20
9.36625
11
19.54000
21
6.19125
0
LINE
8
0
10
19.54000
20
6.19125
11
18.27000
21
6.19125
0
LINE
8
0
10
18.27000
20
6.19125
11
18.27000
21
9.36625
0
LINE
8
0
10
19.57485
20
19.45390
11
19.57485
21
16.66875
0
LINE
8
0
10
19.57485
20
16.66875
11
18.25000
21
16.66875
0
LINE
8
0
10
19.57485
20
4.12750
11
19.57485
21
1.90265
0
LINE
8
0
10
19.57485
20
1.90265
11
55.78360
21
1.90265
0
LINE
8
0
10
55.78360
20
3.70890
11
60.12485
21
3.70890
0
LINE
8
0
10
55.78360
20
1.90265
11
55.78360
21
3.70890
0
LINE
8
0
10
60.12485
20
3.70890
11
60.12485
21
1.90265
0
LINE
8
0
10
60.12485
20
1.90265
11
67.80000
21
1.90265
0
LINE
8
0
10
67.80000
20
1.90265
11
69.67485
21
3.81000
0
LINE
8
0
10
68.26985
20
56.63165
11
69.67485
21
56.63165
0
LINE
8
0
10
68.26985
20
51.93265
11
68.26985
21
56.63165
0
LINE
8
0
10
69.67485
20
116.70265
11
0.02485
21
116.70265
0
LINE
8
0
10
69.67485
20
96.52000
11
69.67485
21
116.70265
0
LINE
8
0
10
69.67485
20
56.63165
11
69.67485
21
96.52000
0
LINE
8
0
10
69.67485
20
51.93265
11
68.26985
21
51.93265
0
LINE
8
0
10
69.67485
20
3.81000
11
69.67485
21
51.93265
0
ENDSEC
0
EOF
