0
SECTION
2
ENTITIES
0
CIRCLE
8
0
10
25.50000
20
40.80000
40
1.25000
0
CIRCLE
8
0
10
25.50000
20
15.70000
40
3.70000
0
LINE
8
0
10
51.00000
20
57.40000
11
50.99952
21
57.44364
0
LINE
8
0
10
50.99952
20
57.44364
11
50.99192
21
57.53059
0
LINE
8
0
10
50.99192
20
57.53059
11
50.97676
21
57.61654
0
LINE
8
0
10
50.97676
20
57.61654
11
50.95417
21
57.70085
0
LINE
8
0
10
50.95417
20
57.70085
11
50.92432
21
57.78287
0
LINE
8
0
10
50.92432
20
57.78287
11
50.88743
21
57.86197
0
LINE
8
0
10
50.88743
20
57.86197
11
50.84379
21
57.93756
0
LINE
8
0
10
50.84379
20
57.93756
11
50.79373
21
58.00905
0
LINE
8
0
10
50.79373
20
58.00905
11
50.73763
21
58.07591
0
LINE
8
0
10
50.73763
20
58.07591
11
50.67591
21
58.13763
0
LINE
8
0
10
50.67591
20
58.13763
11
50.60905
21
58.19373
0
LINE
8
0
10
50.60905
20
58.19373
11
50.53756
21
58.24379
0
LINE
8
0
10
50.53756
20
58.24379
11
50.46197
21
58.28743
0
LINE
8
0
10
50.46197
20
58.28743
11
50.38287
21
58.32432
0
LINE
8
0
10
50.38287
20
58.32432
11
50.30085
21
58.35417
0
LINE
8
0
10
50.30085
20
58.35417
11
50.21654
21
58.37676
0
LINE
8
0
10
50.21654
20
58.37676
11
50.13059
21
58.39192
0
LINE
8
0
10
50.13059
20
58.39192
11
50.04364
21
58.39952
0
LINE
8
0
10
50.04364
20
58.39952
11
50.00000
21
58.40000
0
LINE
8
0
10
50.00000
20
58.40000
11
47.30000
21
58.40000
0
LINE
8
0
10
47.30000
20
58.40000
11
47.26633
21
58.40047
0
LINE
8
0
10
47.26633
20
58.40047
11
47.19942
21
58.40801
0
LINE
8
0
10
47.19942
20
58.40801
11
47.13377
21
58.42300
0
LINE
8
0
10
47.13377
20
58.42300
11
47.07021
21
58.44524
0
LINE
8
0
10
47.07021
20
58.44524
11
47.00954
21
58.47445
0
LINE
8
0
10
47.00954
20
58.47445
11
46.95252
21
58.51028
0
LINE
8
0
10
46.95252
20
58.51028
11
46.89988
21
58.55226
0
LINE
8
0
10
46.89988
20
58.55226
11
46.85226
21
58.59988
0
LINE
8
0
10
46.85226
20
58.59988
11
46.81028
21
58.65252
0
LINE
8
0
10
46.81028
20
58.65252
11
46.77445
21
58.70954
0
LINE
8
0
10
46.77445
20
58.70954
11
46.74524
21
58.77021
0
LINE
8
0
10
46.74524
20
58.77021
11
46.72300
21
58.83377
0
LINE
8
0
10
46.72300
20
58.83377
11
46.70801
21
58.89942
0
LINE
8
0
10
46.70801
20
58.89942
11
46.70047
21
58.96633
0
LINE
8
0
10
46.70047
20
58.96633
11
46.70000
21
59.00000
0
LINE
8
0
10
46.70000
20
59.00000
11
46.70000
21
59.70000
0
LINE
8
0
10
46.70000
20
59.70000
11
46.69952
21
59.74364
0
LINE
8
0
10
46.69952
20
59.74364
11
46.69192
21
59.83059
0
LINE
8
0
10
46.69192
20
59.83059
11
46.67676
21
59.91654
0
LINE
8
0
10
46.67676
20
59.91654
11
46.65417
21
60.00085
0
LINE
8
0
10
46.65417
20
60.00085
11
46.62432
21
60.08287
0
LINE
8
0
10
46.62432
20
60.08287
11
46.58743
21
60.16197
0
LINE
8
0
10
46.58743
20
60.16197
11
46.54379
21
60.23756
0
LINE
8
0
10
46.54379
20
60.23756
11
46.49373
21
60.30905
0
LINE
8
0
10
46.49373
20
60.30905
11
46.43763
21
60.37591
0
LINE
8
0
10
46.43763
20
60.37591
11
46.37591
21
60.43763
0
LINE
8
0
10
46.37591
20
60.43763
11
46.30905
21
60.49373
0
LINE
8
0
10
46.30905
20
60.49373
11
46.23756
21
60.54379
0
LINE
8
0
10
46.23756
20
60.54379
11
46.16197
21
60.58743
0
LINE
8
0
10
46.16197
20
60.58743
11
46.08287
21
60.62432
0
LINE
8
0
10
46.08287
20
60.62432
11
46.00085
21
60.65417
0
LINE
8
0
10
46.00085
20
60.65417
11
45.91654
21
60.67676
0
LINE
8
0
10
45.91654
20
60.67676
11
45.83059
21
60.69192
0
LINE
8
0
10
45.83059
20
60.69192
11
45.74364
21
60.69952
0
LINE
8
0
10
45.74364
20
60.69952
11
45.70000
21
60.70000
0
LINE
8
0
10
45.70000
20
60.70000
11
1.00000
21
60.70000
0
LINE
8
0
10
1.00000
20
60.70000
11
0.95636
21
60.69952
0
LINE
8
0
10
0.95636
20
60.69952
11
0.86941
21
60.69192
0
LINE
8
0
10
0.86941
20
60.69192
11
0.78346
21
60.67676
0
LINE
8
0
10
0.78346
20
60.67676
11
0.69915
21
60.65417
0
LINE
8
0
10
0.69915
20
60.65417
11
0.61713
21
60.62432
0
LINE
8
0
10
0.61713
20
60.62432
11
0.53803
21
60.58743
0
LINE
8
0
10
0.53803
20
60.58743
11
0.46244
21
60.54379
0
LINE
8
0
10
0.46244
20
60.54379
11
0.39095
21
60.49373
0
LINE
8
0
10
0.39095
20
60.49373
11
0.32409
21
60.43763
0
LINE
8
0
10
0.32409
20
60.43763
11
0.26237
21
60.37591
0
LINE
8
0
10
0.26237
20
60.37591
11
0.20627
21
60.30905
0
LINE
8
0
10
0.20627
20
60.30905
11
0.15621
21
60.23756
0
LINE
8
0
10
0.15621
20
60.23756
11
0.11257
21
60.16197
0
LINE
8
0
10
0.11257
20
60.16197
11
0.07568
21
60.08287
0
LINE
8
0
10
0.07568
20
60.08287
11
0.04583
21
60.00085
0
LINE
8
0
10
0.04583
20
60.00085
11
0.02324
21
59.91654
0
LINE
8
0
10
0.02324
20
59.91654
11
0.00808
21
59.83059
0
LINE
8
0
10
0.00808
20
59.83059
11
0.00048
21
59.74364
0
LINE
8
0
10
0.00048
20
59.74364
11
0.00000
21
59.70000
0
LINE
8
0
10
0.00000
20
59.70000
11
0.00000
21
9.40000
0
LINE
8
0
10
0.00000
20
9.40000
11
0.00053
21
9.36726
0
LINE
8
0
10
0.00053
20
9.36726
11
0.00908
21
9.30235
0
LINE
8
0
10
0.00908
20
9.30235
11
0.02603
21
9.23911
0
LINE
8
0
10
0.02603
20
9.23911
11
0.05108
21
9.17862
0
LINE
8
0
10
0.05108
20
9.17862
11
0.08382
21
9.12192
0
LINE
8
0
10
0.08382
20
9.12192
11
0.12368
21
9.06997
0
LINE
8
0
10
0.12368
20
9.06997
11
0.16997
21
9.02368
0
LINE
8
0
10
0.16997
20
9.02368
11
0.22192
21
8.98382
0
LINE
8
0
10
0.22192
20
8.98382
11
0.27862
21
8.95108
0
LINE
8
0
10
0.27862
20
8.95108
11
0.33911
21
8.92603
0
LINE
8
0
10
0.33911
20
8.92603
11
0.40235
21
8.90908
0
LINE
8
0
10
0.40235
20
8.90908
11
0.46726
21
8.90054
0
LINE
8
0
10
0.46726
20
8.90054
11
0.50000
21
8.90000
0
LINE
8
0
10
0.50000
20
8.90000
11
0.65000
21
8.90000
0
LINE
8
0
10
0.65000
20
8.90000
11
0.66965
21
8.89952
0
LINE
8
0
10
0.66965
20
8.89952
11
0.70820
21
8.89185
0
LINE
8
0
10
0.70820
20
8.89185
11
0.74451
21
8.87681
0
LINE
8
0
10
0.74451
20
8.87681
11
0.77719
21
8.85498
0
LINE
8
0
10
0.77719
20
8.85498
11
0.80498
21
8.82719
0
LINE
8
0
10
0.80498
20
8.82719
11
0.82681
21
8.79451
0
LINE
8
0
10
0.82681
20
8.79451
11
0.84185
21
8.75820
0
LINE
8
0
10
0.84185
20
8.75820
11
0.84952
21
8.71965
0
LINE
8
0
10
0.84952
20
8.71965
11
0.85000
21
8.70000
0
LINE
8
0
10
0.85000
20
8.70000
11
0.85000
21
1.50000
0
LINE
8
0
10
0.85000
20
1.50000
11
0.85048
21
1.44644
0
LINE
8
0
10
0.85048
20
1.44644
11
0.85812
21
1.33961
0
LINE
8
0
10
0.85812
20
1.33961
11
0.87336
21
1.23359
0
LINE
8
0
10
0.87336
20
1.23359
11
0.89613
21
1.12892
0
LINE
8
0
10
0.89613
20
1.12892
11
0.92631
21
1.02615
0
LINE
8
0
10
0.92631
20
1.02615
11
0.96374
21
0.92579
0
LINE
8
0
10
0.96374
20
0.92579
11
1.00823
21
0.82836
0
LINE
8
0
10
1.00823
20
0.82836
11
1.05957
21
0.73435
0
LINE
8
0
10
1.05957
20
0.73435
11
1.11748
21
0.64424
0
LINE
8
0
10
1.11748
20
0.64424
11
1.18167
21
0.55850
0
LINE
8
0
10
1.18167
20
0.55850
11
1.25181
21
0.47755
0
LINE
8
0
10
1.25181
20
0.47755
11
1.32755
21
0.40181
0
LINE
8
0
10
1.32755
20
0.40181
11
1.40850
21
0.33167
0
LINE
8
0
10
1.40850
20
0.33167
11
1.49424
21
0.26748
0
LINE
8
0
10
1.49424
20
0.26748
11
1.58435
21
0.20957
0
LINE
8
0
10
1.58435
20
0.20957
11
1.67836
21
0.15824
0
LINE
8
0
10
1.67836
20
0.15824
11
1.77579
21
0.11374
0
LINE
8
0
10
1.77579
20
0.11374
11
1.87615
21
0.07631
0
LINE
8
0
10
1.87615
20
0.07631
11
1.97892
21
0.04613
0
LINE
8
0
10
1.97892
20
0.04613
11
2.08358
21
0.02336
0
LINE
8
0
10
2.08358
20
0.02336
11
2.18961
21
0.00812
0
LINE
8
0
10
2.18961
20
0.00812
11
2.29644
21
0.00048
0
LINE
8
0
10
2.29644
20
0.00048
11
2.35000
21
0.00000
0
LINE
8
0
10
2.35000
20
0.00000
11
48.65000
21
0.00000
0
LINE
8
0
10
48.65000
20
0.00000
11
48.70356
21
0.00048
0
LINE
8
0
10
48.70356
20
0.00048
11
48.81039
21
0.00812
0
LINE
8
0
10
48.81039
20
0.00812
11
48.91642
21
0.02336
0
LINE
8
0
10
48.91642
20
0.02336
11
49.02108
21
0.04613
0
LINE
8
0
10
49.02108
20
0.04613
11
49.12385
21
0.07631
0
LINE
8
0
10
49.12385
20
0.07631
11
49.22421
21
0.11374
0
LINE
8
0
10
49.22421
20
0.11374
11
49.32164
21
0.15824
0
LINE
8
0
10
49.32164
20
0.15824
11
49.41565
21
0.20957
0
LINE
8
0
10
49.41565
20
0.20957
11
49.50576
21
0.26748
0
LINE
8
0
10
49.50576
20
0.26748
11
49.59150
21
0.33167
0
LINE
8
0
10
49.59150
20
0.33167
11
49.67245
21
0.40181
0
LINE
8
0
10
49.67245
20
0.40181
11
49.74819
21
0.47755
0
LINE
8
0
10
49.74819
20
0.47755
11
49.81833
21
0.55850
0
LINE
8
0
10
49.81833
20
0.55850
11
49.88252
21
0.64424
0
LINE
8
0
10
49.88252
20
0.64424
11
49.94043
21
0.73435
0
LINE
8
0
10
49.94043
20
0.73435
11
49.99176
21
0.82836
0
LINE
8
0
10
49.99176
20
0.82836
11
50.03626
21
0.92579
0
LINE
8
0
10
50.03626
20
0.92579
11
50.07369
21
1.02615
0
LINE
8
0
10
50.07369
20
1.02615
11
50.10387
21
1.12892
0
LINE
8
0
10
50.10387
20
1.12892
11
50.12664
21
1.23359
0
LINE
8
0
10
50.12664
20
1.23359
11
50.14188
21
1.33961
0
LINE
8
0
10
50.14188
20
1.33961
11
50.14952
21
1.44644
0
LINE
8
0
10
50.14952
20
1.44644
11
50.15000
21
1.50000
0
LINE
8
0
10
50.15000
20
1.50000
11
50.15000
21
8.70000
0
LINE
8
0
10
50.15000
20
8.70000
11
50.15048
21
8.71965
0
LINE
8
0
10
50.15048
20
8.71965
11
50.15815
21
8.75820
0
LINE
8
0
10
50.15815
20
8.75820
11
50.17319
21
8.79451
0
LINE
8
0
10
50.17319
20
8.79451
11
50.19502
21
8.82719
0
LINE
8
0
10
50.19502
20
8.82719
11
50.22281
21
8.85498
0
LINE
8
0
10
50.22281
20
8.85498
11
50.25549
21
8.87681
0
LINE
8
0
10
50.25549
20
8.87681
11
50.29180
21
8.89185
0
LINE
8
0
10
50.29180
20
8.89185
11
50.33035
21
8.89952
0
LINE
8
0
10
50.33035
20
8.89952
11
50.35000
21
8.90000
0
LINE
8
0
10
50.35000
20
8.90000
11
50.50000
21
8.90000
0
LINE
8
0
10
50.50000
20
8.90000
11
50.53274
21
8.90054
0
LINE
8
0
10
50.53274
20
8.90054
11
50.59765
21
8.90908
0
LINE
8
0
10
50.59765
20
8.90908
11
50.66089
21
8.92603
0
LINE
8
0
10
50.66089
20
8.92603
11
50.72138
21
8.95108
0
LINE
8
0
10
50.72138
20
8.95108
11
50.77808
21
8.98382
0
LINE
8
0
10
50.77808
20
8.98382
11
50.83003
21
9.02368
0
LINE
8
0
10
50.83003
20
9.02368
11
50.87632
21
9.06997
0
LINE
8
0
10
50.87632
20
9.06997
11
50.91618
21
9.12192
0
LINE
8
0
10
50.91618
20
9.12192
11
50.94892
21
9.17862
0
LINE
8
0
10
50.94892
20
9.17862
11
50.97397
21
9.23911
0
LINE
8
0
10
50.97397
20
9.23911
11
50.99092
21
9.30235
0
LINE
8
0
10
50.99092
20
9.30235
11
50.99946
21
9.36726
0
LINE
8
0
10
50.99946
20
9.36726
11
51.00000
21
9.40000
0
LINE
8
0
10
51.00000
20
9.40000
11
51.00000
21
57.40000
0
ENDSEC
0
EOF
